<mxfile host="app.diagrams.net" agent="Mozilla/5.0 (X11; Linux x86_64) AppleWebKit/537.36 (KHTML, like Gecko) Chrome/139.0.0.0 Safari/537.36" version="28.2.7">
  <diagram name="Page-1" id="8GoP4pXTAJeNQwZ-7J2Y">
    <mxGraphModel dx="702" dy="490" grid="1" gridSize="10" guides="1" tooltips="1" connect="1" arrows="1" fold="1" page="1" pageScale="1" pageWidth="827" pageHeight="1169" math="0" shadow="0">
      <root>
        <mxCell id="0" />
        <mxCell id="1" parent="0" />
        <mxCell id="BXPehmbD7InBfsYG5QD0-1" value="DDoS" style="shape=trapezoid;perimeter=trapezoidPerimeter;whiteSpace=wrap;html=1;fixedSize=1;fillColor=#E51400;fontColor=#ffffff;strokeColor=#B20000;" parent="1" vertex="1">
          <mxGeometry x="680" y="50" width="120" height="60" as="geometry" />
        </mxCell>
        <mxCell id="BXPehmbD7InBfsYG5QD0-2" value="" style="endArrow=none;html=1;rounded=0;endSize=11;startSize=11;jumpSize=10;strokeWidth=5;strokeColor=light-dark(#000000,#FF9281);" parent="1" edge="1">
          <mxGeometry width="50" height="50" relative="1" as="geometry">
            <mxPoint x="150" y="170" as="sourcePoint" />
            <mxPoint x="1400" y="170" as="targetPoint" />
          </mxGeometry>
        </mxCell>
        <mxCell id="BXPehmbD7InBfsYG5QD0-3" value="" style="shape=singleArrow;whiteSpace=wrap;html=1;arrowWidth=0.4;arrowSize=0.4;fillColor=#e51400;strokeColor=#B20000;fontColor=#ffffff;direction=south;" parent="1" vertex="1">
          <mxGeometry x="725" y="110" width="30" height="60" as="geometry" />
        </mxCell>
        <mxCell id="BXPehmbD7InBfsYG5QD0-5" value="Beaucoup de paquets UDP&amp;nbsp;" style="shape=callout;whiteSpace=wrap;html=1;perimeter=calloutPerimeter;direction=west;fillColor=#6d8764;fontColor=#ffffff;strokeColor=#3A5431;" parent="1" vertex="1">
          <mxGeometry x="100" y="300" width="120" height="80" as="geometry" />
        </mxCell>
        <mxCell id="BXPehmbD7InBfsYG5QD0-6" value="UDP Flood" style="rounded=0;whiteSpace=wrap;html=1;fillColor=#6d8764;fontColor=#ffffff;strokeColor=#3A5431;" parent="1" vertex="1">
          <mxGeometry x="100" y="240" width="120" height="60" as="geometry" />
        </mxCell>
        <mxCell id="BXPehmbD7InBfsYG5QD0-8" value="" style="endArrow=classic;html=1;rounded=0;" parent="1" edge="1">
          <mxGeometry width="50" height="50" relative="1" as="geometry">
            <mxPoint x="150" y="170" as="sourcePoint" />
            <mxPoint x="150" y="240" as="targetPoint" />
          </mxGeometry>
        </mxCell>
        <mxCell id="BXPehmbD7InBfsYG5QD0-9" value="" style="endArrow=classic;html=1;rounded=0;" parent="1" edge="1">
          <mxGeometry width="50" height="50" relative="1" as="geometry">
            <mxPoint x="360" y="170" as="sourcePoint" />
            <mxPoint x="360" y="240" as="targetPoint" />
          </mxGeometry>
        </mxCell>
        <mxCell id="BXPehmbD7InBfsYG5QD0-10" value="TCP SYN Flood" style="rounded=0;whiteSpace=wrap;html=1;fillColor=#fa6800;fontColor=#000000;strokeColor=#C73500;" parent="1" vertex="1">
          <mxGeometry x="300" y="240" width="120" height="60" as="geometry" />
        </mxCell>
        <mxCell id="BXPehmbD7InBfsYG5QD0-11" value="&lt;ul&gt;&lt;li&gt;SYN = 1, SYN-ACK = 1 et ACK = 0&lt;/li&gt;&lt;li&gt;Beaucoup de paquets TCP&lt;/li&gt;&lt;/ul&gt;&lt;div&gt;&lt;br&gt;&lt;/div&gt;" style="shape=callout;whiteSpace=wrap;html=1;perimeter=calloutPerimeter;direction=west;fillColor=#fa6800;fontColor=#000000;strokeColor=#C73500;" parent="1" vertex="1">
          <mxGeometry x="300" y="300" width="180" height="120" as="geometry" />
        </mxCell>
        <mxCell id="BXPehmbD7InBfsYG5QD0-12" value="" style="endArrow=classic;html=1;rounded=0;" parent="1" edge="1">
          <mxGeometry width="50" height="50" relative="1" as="geometry">
            <mxPoint x="600" y="170" as="sourcePoint" />
            <mxPoint x="600" y="240" as="targetPoint" />
            <Array as="points" />
          </mxGeometry>
        </mxCell>
        <mxCell id="BXPehmbD7InBfsYG5QD0-13" value="HTTP Flood" style="rounded=0;whiteSpace=wrap;html=1;fillColor=#d5e8d4;gradientColor=#97d077;strokeColor=#82b366;" parent="1" vertex="1">
          <mxGeometry x="540" y="240" width="120" height="60" as="geometry" />
        </mxCell>
        <mxCell id="BXPehmbD7InBfsYG5QD0-14" value="ICMP Flood" style="rounded=0;whiteSpace=wrap;html=1;fillColor=#dae8fc;gradientColor=#7ea6e0;strokeColor=#6c8ebf;" parent="1" vertex="1">
          <mxGeometry x="780" y="240" width="120" height="60" as="geometry" />
        </mxCell>
        <mxCell id="BXPehmbD7InBfsYG5QD0-16" value="" style="endArrow=classic;html=1;rounded=0;entryX=0.408;entryY=-0.017;entryDx=0;entryDy=0;entryPerimeter=0;" parent="1" target="BXPehmbD7InBfsYG5QD0-14" edge="1">
          <mxGeometry width="50" height="50" relative="1" as="geometry">
            <mxPoint x="830" y="170" as="sourcePoint" />
            <mxPoint x="810" y="250" as="targetPoint" />
          </mxGeometry>
        </mxCell>
        <mxCell id="BXPehmbD7InBfsYG5QD0-17" value="DNS Amplification" style="rounded=0;whiteSpace=wrap;html=1;fillColor=#ffe6cc;strokeColor=#d79b00;" parent="1" vertex="1">
          <mxGeometry x="1070" y="240" width="120" height="60" as="geometry" />
        </mxCell>
        <mxCell id="BXPehmbD7InBfsYG5QD0-18" value="" style="endArrow=classic;html=1;rounded=0;entryX=0.417;entryY=-0.033;entryDx=0;entryDy=0;entryPerimeter=0;" parent="1" target="BXPehmbD7InBfsYG5QD0-17" edge="1">
          <mxGeometry width="50" height="50" relative="1" as="geometry">
            <mxPoint x="1120" y="170" as="sourcePoint" />
            <mxPoint x="1010" y="250" as="targetPoint" />
          </mxGeometry>
        </mxCell>
        <mxCell id="BXPehmbD7InBfsYG5QD0-19" value="Beaucoup de paquets HTTP (GET / POST)" style="shape=callout;whiteSpace=wrap;html=1;perimeter=calloutPerimeter;direction=west;fillColor=#d5e8d4;gradientColor=#97d077;strokeColor=#82b366;" parent="1" vertex="1">
          <mxGeometry x="540" y="300" width="120" height="80" as="geometry" />
        </mxCell>
        <mxCell id="BXPehmbD7InBfsYG5QD0-20" value="Beaucoup de paquets ICMP (echo request, type = 8)" style="shape=callout;whiteSpace=wrap;html=1;perimeter=calloutPerimeter;direction=west;fillColor=#dae8fc;gradientColor=#7ea6e0;strokeColor=#6c8ebf;" parent="1" vertex="1">
          <mxGeometry x="780" y="300" width="120" height="80" as="geometry" />
        </mxCell>
        <mxCell id="BXPehmbD7InBfsYG5QD0-21" value="Amplification des reponses DNS" style="shape=callout;whiteSpace=wrap;html=1;perimeter=calloutPerimeter;direction=west;fillColor=#ffe6cc;strokeColor=#d79b00;" parent="1" vertex="1">
          <mxGeometry x="1070" y="300" width="120" height="80" as="geometry" />
        </mxCell>
        <mxCell id="BXPehmbD7InBfsYG5QD0-24" value="Autres formes (prÃ©sent ou futur)" style="rounded=0;whiteSpace=wrap;html=1;" parent="1" vertex="1">
          <mxGeometry x="1340" y="240" width="120" height="60" as="geometry" />
        </mxCell>
        <mxCell id="BXPehmbD7InBfsYG5QD0-25" value="" style="endArrow=classic;html=1;rounded=0;entryX=0.5;entryY=0;entryDx=0;entryDy=0;" parent="1" target="BXPehmbD7InBfsYG5QD0-24" edge="1">
          <mxGeometry width="50" height="50" relative="1" as="geometry">
            <mxPoint x="1400" y="170" as="sourcePoint" />
            <mxPoint x="1240" y="200" as="targetPoint" />
          </mxGeometry>
        </mxCell>
      </root>
    </mxGraphModel>
  </diagram>
</mxfile>
